<?xml version="1.0" encoding="UTF-8"?>
<svg version="1.1" xmlns="http://www.w3.org/2000/svg" width="374" height="581">
<path d="M0 0 C2.52705495 3.69030246 4.33278747 7.71847832 6.25 11.75 C14.13399671 27.76208646 25.78549017 38.08832384 42.5625 44 C50.47220813 46.7969265 57.24505739 49.79965834 62 57 C66.81017913 67.28889162 69.18964983 78.64983276 66.24609375 89.875 C65.30728681 92.05450473 64.27679844 94.00249999 63 96 C62.443125 96.9075 61.88625 97.815 61.3125 98.75 C56.00068872 103.91824881 50.06799093 105.98057402 43 108 C42.34 116.91 41.68 125.82 41 135 C40.34 135 39.68 135 39 135 C38.64284912 133.97342285 38.28569824 132.9468457 37.91772461 131.88916016 C36.55852853 127.98518251 35.19499742 124.08272945 33.83032227 120.18066406 C33.24650424 118.50951092 32.66377644 116.8379764 32.08227539 115.16601562 C28.7156442 105.48877274 25.22016325 95.88684412 21.46264648 86.35424805 C18.49802449 78.79916239 15.91565699 71.12803111 13.38476562 63.41796875 C8.1902419 47.65299304 8.1902419 47.65299304 -3 36 C-3.71542969 35.46503906 -4.43085938 34.93007812 -5.16796875 34.37890625 C-9.06962954 32.47920107 -12.46065833 32.46503735 -16.75 32.5 C-17.55405273 32.50572021 -18.35810547 32.51144043 -19.18652344 32.51733398 C-26.62733995 32.74146406 -31.30464417 34.54278932 -36.7578125 39.64453125 C-41.82080565 45.06217851 -44.71728295 51.45639307 -45.14428711 58.88525391 C-44.97678399 62.50116737 -44.16448405 65.7061204 -43.1171875 69.14453125 C-42.9004538 69.86730759 -42.68372009 70.59008392 -42.4604187 71.33476257 C-38.81985387 83.15044823 -34.39763688 94.71523134 -30.125 106.3125 C-28.37541373 111.07862542 -26.6287037 115.84580119 -24.8828125 120.61328125 C-24.45908356 121.76927322 -24.03535461 122.9252652 -23.5987854 124.11628723 C-20.24905549 133.27285494 -17.00752591 142.46376192 -13.80963135 151.67422485 C-11.63361841 157.92511524 -9.42127037 164.16305381 -7.19238281 170.39526367 C-6.64082551 171.94202936 -6.09239348 173.48991257 -5.546875 175.03881836 C-0.51401932 190.3246664 -0.51401932 190.3246664 9 203 C9 203.66 9 204.32 9 205 C9.82286499 205.38937744 9.82286499 205.38937744 10.66235352 205.78662109 C13.3529344 207.18319415 15.85491629 208.77029432 18.40234375 210.4140625 C19.45115723 211.08880615 20.4999707 211.7635498 21.58056641 212.45874023 C22.68835449 213.17360596 23.79614258 213.88847168 24.9375 214.625 C33.57010802 220.17602595 42.2139281 225.693675 51 231 C52.23958584 231.75390213 53.47916902 232.50780863 54.71875 233.26171875 C56.02058367 234.04989168 57.32266314 234.83765878 58.625 235.625 C59.19879395 235.97361084 59.77258789 236.32222168 60.36376953 236.68139648 C64.84774814 239.37820913 69.42371041 241.88652869 74.0234375 244.37988281 C79.26703144 247.23392558 84.47333407 250.15515667 89.6875 253.0625 C98.50967627 257.97720547 107.35847777 262.83646766 116.25 267.625 C124.91860282 272.29434906 133.50349745 277.09285719 142.05322266 281.97607422 C147.39671535 285.01217034 152.77619597 287.96650041 158.2109375 290.8359375 C158.82710938 291.16206024 159.44328125 291.48818298 160.078125 291.82418823 C163.07019003 293.40638353 166.0663889 294.97882431 169.07128906 296.53662109 C196.0113498 310.7228494 196.0113498 310.7228494 200.5234375 324.4765625 C202.24030547 333.56751911 202.2842048 342.8803835 197.3984375 350.96484375 C196.93695313 351.63644531 196.47546875 352.30804687 196 353 C195.319375 354.051875 194.63875 355.10375 193.9375 356.1875 C187.93362201 362.83736486 179.74964667 366.33378944 171 367 C167.09829469 367.13588996 163.20039025 367.13932267 159.29660034 367.13371277 C158.13426947 367.13597833 156.97193859 367.13824388 155.77438557 367.14057809 C152.56598627 367.14579514 149.3576224 367.14656611 146.14922023 367.14538372 C142.6822703 367.14517895 139.21532862 367.1507055 135.74838257 367.15544128 C128.96424011 367.16373054 122.18010634 367.1664953 115.39595924 367.16705366 C109.88227932 367.16752941 104.36860226 367.1695871 98.85492325 367.17275429 C83.2167229 367.18155428 67.5785294 367.18617441 51.94032656 367.18542381 C51.09811938 367.18538386 50.2559122 367.1853439 49.38818359 367.18530273 C48.54494687 367.18526185 47.70171015 367.18522097 46.8329208 367.18517885 C33.154301 367.18477203 19.47570868 367.19435236 5.79709683 367.2084411 C-8.25376156 367.22279899 -22.30460653 367.22971169 -36.35547245 367.22884732 C-44.24182667 367.22851527 -52.12815205 367.23126646 -60.01449966 367.24202538 C-66.72545193 367.2511224 -73.43636226 367.25331202 -80.14731802 367.24651595 C-83.57084678 367.24324739 -86.99429502 367.24320628 -90.41781616 367.2518692 C-94.12880584 367.25955417 -97.83958274 367.25496743 -101.55056763 367.24723816 C-102.63266294 367.25238172 -103.71475825 367.25752529 -104.82964432 367.26282471 C-116.63392413 367.20833748 -116.63392413 367.20833748 -120.875 363.25 C-122.49311857 360.01376286 -122.76073817 358.5962168 -122 355 C-117.05114324 348.28576159 -109.64041501 343.44910832 -103.01513672 338.50585938 C-100.78631276 336.84031707 -98.56677281 335.1628275 -96.34765625 333.484375 C-92.09445313 330.27201371 -87.82555711 327.0813488 -83.54882812 323.90039062 C-81.88009716 322.65619505 -80.21459447 321.40765505 -78.55273438 320.15429688 C-64.51894254 309.57426841 -52.83438127 302.43069725 -35 301 C-37.3135629 299.45762473 -39.18907145 298.45951057 -41.6875 297.375 C-49.32790067 293.57590574 -55.23725249 287.09660688 -58 279 C-58.57172109 276.18903795 -58.87811339 273.82776937 -59 271 C-59.06316406 270.16984375 -59.12632813 269.3396875 -59.19140625 268.484375 C-59.68718903 256.5216163 -57.03359554 244.73228193 -55 233 C-54.44213748 229.74187108 -53.88729592 226.48327799 -53.33691406 223.22387695 C-52.99873111 221.22548022 -52.65597364 219.22784962 -52.30761719 217.23120117 C-50.59121866 207.17687696 -49.84158853 197.21042755 -49.76171875 187.015625 C-49.74961113 185.48938507 -49.74961113 185.48938507 -49.73725891 183.93231201 C-49.72352004 181.7877365 -49.71275302 179.64314006 -49.70483398 177.49853516 C-49.69339227 175.35426188 -49.67306684 173.21001529 -49.64331055 171.06591797 C-49.3642998 150.86803352 -52.0349911 131.90560231 -57.375 112.4375 C-57.67172607 111.31964111 -57.96845215 110.20178223 -58.27416992 109.05004883 C-59.71325241 103.65186159 -61.20055306 98.26815236 -62.71484375 92.890625 C-69.70069989 68.04551242 -71.76532725 45.75582822 -60 22 C-57.9296875 18.578125 -57.9296875 18.578125 -56 16 C-55.34 16 -54.68 16 -54 16 C-53.62488281 15.13181641 -53.62488281 15.13181641 -53.2421875 14.24609375 C-48.64175048 5.92769349 -39.6747963 1.76878955 -31 -1 C-21.22635264 -3.77266592 -9.46615494 -4.11571954 0 0 Z M-32 301 C-28 302 -28 302 -28 302 Z " fill="#000000" transform="translate(166,200)"/>
<path d="M0 0 C2.73382075 2.15907559 5.2961798 4.39733118 7.82421875 6.79296875 C8.53964844 7.46714844 9.25507813 8.14132813 9.9921875 8.8359375 C20.69726883 19.87231729 28.17781304 36.44785931 28.82421875 51.79296875 C28.86417969 52.49679688 28.90414062 53.200625 28.9453125 53.92578125 C29.46019423 70.82601693 23.66035348 88.25859462 12.51171875 100.98046875 C4.99120573 108.90274541 -2.26917044 115.05808791 -12.17578125 119.79296875 C-12.98917969 120.18484375 -13.80257812 120.57671875 -14.640625 120.98046875 C-30.62585208 128.02744082 -49.97552683 127.4635732 -66.2890625 121.69140625 C-74.27461627 118.18996117 -82.76700706 113.77449133 -89.17578125 107.79296875 C-89.17578125 107.13296875 -89.17578125 106.47296875 -89.17578125 105.79296875 C-89.73394531 105.59316406 -90.29210937 105.39335937 -90.8671875 105.1875 C-94.09184077 103.239613 -95.97788166 100.50724329 -98.11328125 97.48046875 C-98.55349609 96.85962402 -98.99371094 96.2387793 -99.44726562 95.59912109 C-103.47348783 89.7133807 -106.08115628 83.60968684 -108.17578125 76.79296875 C-108.4078125 76.04273438 -108.63984375 75.2925 -108.87890625 74.51953125 C-113.68007495 57.16673579 -111.30465201 39.72717313 -103.17578125 23.79296875 C-91.37179864 4.22683415 -75.74417613 -7.25139878 -53.76953125 -12.81640625 C-34.40378144 -15.73293484 -15.96906104 -11.09780995 0 0 Z " fill="#000000" transform="translate(206.17578125,55.20703125)"/>
<path d="M0 0 C5.66047804 0.38376122 9.86641128 1.85242029 14.375 5.3125 C19.63432909 11.99326939 22.56226219 20.11207405 25.3671875 28.06640625 C25.69684006 28.98450073 26.02649261 29.90259521 26.36613464 30.84851074 C27.43713715 33.83455405 28.49972324 36.82352039 29.5625 39.8125 C30.69349278 42.9708787 31.82674746 46.12844036 32.96003723 49.28599548 C33.73109501 51.43487564 34.50142581 53.58401678 35.27104187 55.7334137 C38.73751015 65.4110982 42.25883546 75.06819311 45.79885864 84.71917725 C46.74048416 87.28655471 47.68086885 89.85438322 48.62084961 92.42236328 C51.20795656 99.48930853 53.79898175 106.55477518 56.3984375 113.6171875 C57.14067359 115.64060718 57.88286608 117.66404285 58.625 119.6875 C58.94927979 120.56349854 59.27355957 121.43949707 59.60766602 122.34204102 C61.6875 128.02352428 61.6875 128.02352428 61.6875 130.25 C62.42097656 130.51296875 63.15445313 130.7759375 63.91015625 131.046875 C66.71830821 132.26334589 68.71285553 133.62885927 71.125 135.5 C76.16808492 139.24121945 81.36345497 142.61130937 86.6875 145.9375 C100.3922394 154.53071518 113.7304773 163.67428461 127.10546875 172.76831055 C135.80338376 178.67244647 144.51104149 184.52036993 153.48641968 189.99713135 C173.21956471 202.07908797 173.21956471 202.07908797 177 210 C178.66512164 217.87148413 178.08858555 224.35797746 173.6875 231.25 C170.79196264 234.65733936 168.5034669 237.09647933 163.92089844 237.48388672 C160.24013579 237.21764007 158.19263844 236.28432112 154.9765625 234.50390625 C153.905271 233.91867187 152.83397949 233.3334375 151.73022461 232.73046875 C150.60237549 232.09753906 149.47452637 231.46460938 148.3125 230.8125 C147.13021223 230.16041734 145.94734589 229.50938263 144.76391602 228.859375 C141.39641381 227.00504539 138.0411799 225.12922173 134.6875 223.25 C133.22535607 222.43602607 131.7631335 221.62219336 130.30078125 220.80859375 C127.83559036 219.43150477 125.37690624 218.04355102 122.921875 216.6484375 C118.5086203 214.14179579 114.07493983 211.6721147 109.64257812 209.19946289 C26.84287305 162.96797783 26.84287305 162.96797783 18.4375 137.3125 C17.64584806 134.96439938 16.85284755 132.61675306 16.05859375 130.26953125 C15.66140137 129.0882666 15.26420898 127.90700195 14.85498047 126.68994141 C13.12920616 121.60500622 11.32443524 116.55024217 9.5 111.5 C9.1405127 110.50315186 8.78102539 109.50630371 8.41064453 108.47924805 C5.22045333 99.66453148 1.96841078 90.87280342 -1.28057861 82.07965088 C-6.13078482 68.95220335 -10.94045034 55.81259113 -15.625 42.625 C-15.9772464 41.63605743 -15.9772464 41.63605743 -16.33660889 40.62713623 C-16.99358827 38.78087095 -17.64726775 36.93343242 -18.30078125 35.0859375 C-18.66727783 34.05001465 -19.03377441 33.0140918 -19.41137695 31.94677734 C-21.77978422 24.85888064 -22.42959117 19.07046489 -19.3125 12.125 C-16.19807029 6.38277021 -11.9686095 2.49842763 -5.75 0.375 C-3.83178223 0.27662986 -1.91529145 0.1445503 0 0 Z " fill="#000000" transform="translate(148.3125,237.75)"/>
<path d="M0 0 C0.5364195 3.20592709 1.05130483 6.41496222 1.5625 9.625 C1.71396484 10.52863281 1.86542969 11.43226562 2.02148438 12.36328125 C2.9164813 18.06628494 3.2078343 22.54385979 1.26879883 28.09228516 C-1.2319863 35.47412978 -1.38425143 42.24647111 -1.25 50 C-1.23904297 51.27931396 -1.22808594 52.55862793 -1.21679688 53.87670898 C-1.11827696 62.36280751 -0.77672079 70.81384039 -0.23046875 79.28125 C0.96040572 98.49671595 -0.16571521 120.5481966 -13 136 C-14.32458281 136.68388786 -15.65657772 137.35390496 -17 138 C-17.33 138.99 -17.66 139.98 -18 141 C-27.79724042 149.38533582 -36.98164473 154.16661508 -49.8125 154.25 C-50.98522461 154.2809375 -50.98522461 154.2809375 -52.18164062 154.3125 C-57.51785753 154.34816394 -61.3456038 153.70137505 -66 151 C-66.9375 148.8125 -66.9375 148.8125 -67 147 C-65.98679687 146.64808594 -64.97359375 146.29617187 -63.9296875 145.93359375 C-53.21604534 142.27423597 -53.21604534 142.27423597 -46 134 C-42.5442986 126.15126643 -40.87456596 119.12020935 -40.8671875 110.5390625 C-40.86623077 109.83026947 -40.86527405 109.12147644 -40.86428833 108.39120483 C-40.86361024 106.89687002 -40.8654386 105.40253221 -40.86962891 103.90820312 C-40.87496647 101.63925438 -40.86967957 99.37050501 -40.86328125 97.1015625 C-40.86394241 95.64322874 -40.86522435 94.18489509 -40.8671875 92.7265625 C-40.86831543 91.41252441 -40.86944336 90.09848633 -40.87060547 88.74462891 C-40.99696348 85.08787576 -41.46817456 81.61661717 -42 78 C-43.23127495 55.8962767 -43.71781023 34.05720676 -28.6640625 16.234375 C-22.84605181 9.98982394 -9.26712315 -3.08904105 0 0 Z " fill="#010101" transform="translate(88,109)"/>
<path d="M0 0 C11.9266957 1.87512949 21.67949218 9.35820637 28.8125 18.75 C33.55413253 25.89492573 35.8506637 34.1607113 35.53515625 42.76171875 C34.70062043 46.25214957 33.00850976 47.94900517 30.1328125 50.00390625 C25.18040741 52.31684269 20.71816809 51.58352879 15.6875 49.875 C9.30916133 45.42499628 8.03930713 39.35521809 6.5 32.125 C6.08045943 30.25237258 5.65987472 28.37997881 5.23828125 26.5078125 C5.03283691 25.58129883 4.82739258 24.65478516 4.61572266 23.70019531 C3.4342731 18.51905649 2.05334199 13.38817515 0.69921875 8.25 C0.0787818 5.36618134 -0.1499476 2.9323087 0 0 Z " fill="#030303" transform="translate(211,187)"/>
<path d="M0 0 C6.57511177 -0.22377758 12.21926446 0.41538477 18.5625 2.125 C19.3973291 2.34800781 20.2321582 2.57101563 21.09228516 2.80078125 C27.03607484 4.49399539 31.62650531 6.51866572 36 11 C36.886875 11.78375 37.77375 12.5675 38.6875 13.375 C43.10337841 18.38761874 46.61182167 23.57109143 47.375 30.3125 C46.87765929 35.20301701 45.42915508 36.57084492 42 40 C37.95405828 42.02297086 33.3786524 41.70010973 29 41 C19.66292285 35.99222506 14.1989254 24.4048605 8.77734375 15.75 C6.41637535 12.09698516 3.86890539 8.59174884 1.28515625 5.09375 C0 3 0 3 0 0 Z " fill="#020202" transform="translate(226,168)"/>
<path d="M0 0 C4.98204054 1.70844311 6.46081846 5.71254371 8.68286133 10.19384766 C11.86874007 17.14309518 12.62469127 24.17084854 10.15234375 31.51953125 C8.78317745 34.40883655 7.26253316 36.73746684 5 39 C1.93930176 39.56132497 -0.93291324 39.50119357 -4 39 C-6.5625 37.1875 -6.5625 37.1875 -8 34 C-9.04066061 27.1864116 -7.89559241 21.82999462 -5.0859375 15.6328125 C-3.44772124 11.66102199 -2.56645008 7.55119168 -1.61328125 3.37109375 C-1 1 -1 1 0 0 Z " fill="#000000" transform="translate(254,251)"/>
<path d="M0 0 C5.62117707 0.42158828 9.75081563 2.39283951 14 6 C17.98769673 10.9867741 21.13622054 15.4805155 21.25 21.9375 C21.27578125 22.81277344 21.3015625 23.68804687 21.328125 24.58984375 C20.93836562 27.45271916 20.25397747 28.2627881 18 30 C15.35551231 31.14594467 14.2307952 31.06754982 11.4375 30.25 C6.99362884 27.97109171 5.66740834 25.6366778 4 21 C3.43636299 18.71848366 2.91822135 16.42541528 2.4375 14.125 C2.18871094 12.95195312 1.93992187 11.77890625 1.68359375 10.5703125 C1.01081131 7.05646592 0.47604132 3.54537443 0 0 Z " fill="#040404" transform="translate(268,217)"/>
<path d="M0 0 C1.42944945 2.35438733 2.08661261 3.48032433 1.625 6.25 C1.41875 6.8275 1.2125 7.405 1 8 C0 7 0 7 -0.0625 3.4375 C-0.041875 2.303125 -0.02125 1.16875 0 0 Z " fill="#CECECE" transform="translate(271,178)"/>
<path d="M0 0 C0.33 0 0.66 0 1 0 C1 1.65 1 3.3 1 5 C0.67 5 0.34 5 0 5 C0 3.35 0 1.7 0 0 Z " fill="#595959" transform="translate(373,136)"/>
<path d="M0 0 C0.33 0.99 0.66 1.98 1 3 C0.34 3 -0.32 3 -1 3 C-0.67 2.01 -0.34 1.02 0 0 Z " fill="#6D6D6D" transform="translate(373,125)"/>
<path d="" fill="#D4D4D4" transform="translate(0,0)"/>
<path d="" fill="#BFBFBF" transform="translate(0,0)"/>
<path d="" fill="#BFBFBF" transform="translate(0,0)"/>
</svg>
